{"glyphs":{"\u0000":{"ha":361,"x_min":0,"x_max":0,"o":""},"\r":{"ha":361,"x_min":0,"x_max":0,"o":""}," ":{"ha":361,"x_min":0,"x_max":0,"o":""},"A":{"ha":1433,"x_min":81,"x_max":1353,"o":"m 725 324 q 711 331 721 331 q 682 326 703 331 q 667 321 669 325 q 671 307 665 317 q 708 290 681 290 q 744 296 717 290 q 763 308 761 301 q 747 315 764 315 q 725 324 731 315 m 536 326 q 529 332 536 332 q 499 315 515 332 q 486 301 486 303 q 499 299 486 299 q 524 308 511 299 q 536 326 536 317 m 621 438 q 608 449 621 446 q 599 447 601 450 q 600 438 597 444 q 615 428 606 424 q 621 438 622 429 m 1147 501 q 1150 517 1150 515 q 1135 525 1150 525 l 1119 525 q 1049 517 1067 524 q 1025 494 1032 511 l 1015 474 q 882 478 971 475 q 749 485 793 482 l 725 446 q 707 404 707 413 q 844 394 707 397 q 1047 388 875 394 l 1115 385 l 1129 431 q 1147 501 1143 481 m 535 567 l 606 672 l 754 665 q 917 662 757 665 q 1215 653 1076 658 q 1353 646 1353 649 q 1340 536 1353 642 q 1313 418 1328 429 q 1297 408 1308 415 q 1283 397 1286 400 q 1206 185 1269 388 q 1135 -22 1140 -17 q 1083 -35 1131 -26 q 1017 -44 1035 -44 l 1010 -43 q 1043 101 1006 -39 q 1079 249 1079 240 l 1075 249 q 935 235 1046 249 q 656 210 796 215 l 518 204 l 496 171 q 473 144 482 149 q 440 139 464 139 q 281 122 294 136 q 279 118 279 121 q 301 106 279 111 q 347 100 322 100 q 369 101 363 100 q 435 106 392 106 l 449 106 l 456 106 q 499 116 485 106 q 522 154 514 126 q 543 172 528 172 q 558 161 558 172 q 485 6 558 149 q 392 -161 411 -136 q 311 -197 385 -171 l 240 -224 l 196 -190 q 117 -125 163 -165 l 81 -93 l 142 -4 q 222 93 200 81 q 240 118 240 101 q 326 264 240 132 q 428 406 413 396 q 501 414 435 408 q 552 420 540 417 q 564 431 564 424 q 540 449 564 449 q 504 446 535 449 q 467 443 486 443 q 454 447 454 443 q 456 451 454 450 q 468 470 457 454 q 499 515 479 486 q 535 567 519 543 z "},"B":{"ha":1233,"x_min":81,"x_max":1158,"o":"m 304 139 q 306 139 304 139 q 308 143 308 139 q 304 147 308 147 q 300 143 300 147 q 304 139 300 139 m 286 139 q 292 143 292 139 q 286 147 292 147 q 282 143 282 147 q 286 139 282 139 m 750 215 q 752 215 750 215 q 754 219 754 215 q 750 224 754 224 q 746 219 746 224 q 750 215 746 215 m 358 228 q 351 240 358 239 q 338 226 343 238 q 334 210 332 213 q 346 211 336 207 q 358 228 358 217 m 849 243 q 858 242 853 239 q 856 249 863 246 q 849 243 849 247 m 788 222 q 775 240 788 231 q 767 245 769 244 q 763 243 764 246 q 763 232 763 240 q 775 215 763 215 q 788 222 788 215 m 750 240 q 740 249 746 249 q 747 235 735 249 q 750 232 749 232 q 750 240 756 232 m 497 315 q 516 315 497 315 q 535 324 535 315 q 497 332 535 332 q 460 324 460 332 q 497 315 460 315 m 753 332 q 674 338 721 332 l 631 343 q 540 238 601 307 l 468 242 q 411 244 418 244 q 379 235 379 244 q 383 224 379 231 q 451 204 392 206 l 511 201 l 494 179 q 424 154 476 157 q 367 139 367 151 q 404 131 367 131 q 443 125 443 131 q 408 78 443 118 q 376 33 376 40 q 388 38 376 32 q 416 56 399 44 q 451 81 433 68 q 551 131 522 131 q 566 131 561 131 q 573 133 571 131 q 576 137 575 136 q 576 143 576 138 q 575 151 575 149 q 610 194 575 172 q 681 215 646 215 q 721 228 721 215 q 707 247 721 239 q 703 253 703 250 q 740 286 703 260 q 788 326 788 318 q 753 332 788 332 m 728 379 q 737 378 732 376 q 742 385 742 381 q 738 394 742 390 q 728 395 733 397 q 724 388 724 393 q 728 379 724 383 m 1099 1136 q 1151 1175 1138 1175 l 1153 1175 q 1108 1089 1158 1169 l 1057 1011 l 1057 943 l 1056 875 l 976 775 q 897 674 954 747 q 818 572 840 600 l 739 471 l 815 467 q 965 460 871 463 l 1036 458 l 1058 411 l 1081 358 q 1043 324 1081 351 q 980 277 1033 317 q 828 165 926 238 q 650 35 729 93 l 297 -224 l 189 -162 q 81 -83 82 -101 q 318 224 81 -64 q 365 281 325 232 q 472 412 404 329 q 599 568 539 494 q 823 840 785 799 q 900 897 861 881 q 952 926 939 913 q 1003 1004 965 940 q 1099 1136 1054 1092 z "},"C":{"ha":1619,"x_min":81,"x_max":1539,"o":"m 490 -178 l 508 -176 l 417 -176 l 326 -176 q 343 -178 332 -178 q 378 -178 353 -178 q 417 -179 403 -179 q 456 -178 431 -179 q 490 -178 482 -178 m 786 -53 q 801 -51 796 -57 q 799 -47 804 -47 q 792 -47 796 -47 q 783 -49 785 -47 q 786 -53 781 -50 m 1351 458 q 1385 467 1371 458 q 1406 475 1399 475 q 1460 448 1415 475 q 1519 406 1504 421 l 1539 383 l 1517 375 q 1490 367 1492 367 l 1435 340 q 1367 319 1394 319 q 1343 321 1353 319 q 1321 322 1335 322 q 1292 314 1303 322 q 986 144 1275 297 q 682 -22 682 -21 q 771 -28 682 -28 q 1088 -19 900 -28 q 1297 -3 1276 -11 q 1318 3 1314 3 q 1361 -22 1331 3 q 1400 -49 1394 -49 l 1403 -47 q 1412 -47 1407 -47 q 1422 -46 1417 -46 q 1447 -69 1443 -46 l 1447 -78 q 1418 -132 1447 -97 q 1368 -168 1389 -168 q 1360 -167 1365 -168 q 1350 -167 1354 -167 l 1331 -167 q 780 -187 1214 -167 q 333 -215 346 -208 q 318 -219 328 -219 q 261 -206 303 -219 q 207 -181 207 -187 q 193 -172 207 -172 q 128 -149 175 -172 q 81 -117 81 -125 q 113 -100 81 -100 q 139 -106 128 -100 q 156 -110 144 -110 q 240 -85 175 -110 l 324 -53 l 367 -76 q 417 -94 403 -94 q 419 -93 419 -94 q 389 -69 419 -87 q 351 -36 351 -47 q 361 -22 351 -31 q 775 179 369 -17 q 1254 415 1186 375 q 1351 458 1331 458 z "},"D":{"ha":1424,"x_min":79,"x_max":1343,"o":"m 511 25 q 499 29 511 29 q 482 17 490 29 q 474 -3 474 6 q 475 -7 474 -6 l 476 -7 q 497 6 483 -7 q 511 25 511 19 m 208 172 q 171 181 197 181 l 146 181 l 169 168 q 203 160 186 160 q 215 164 215 160 q 208 172 215 169 m 264 240 q 266 240 264 240 q 268 244 268 240 q 264 249 268 249 q 260 244 260 249 q 264 240 260 240 m 200 246 q 214 254 214 250 q 197 263 214 263 q 183 253 183 263 q 200 246 183 242 m 544 310 q 403 315 411 315 q 358 310 364 315 q 347 276 351 300 q 339 254 344 260 q 319 247 333 249 l 318 247 l 304 244 q 317 243 306 244 q 332 213 338 240 q 326 181 326 185 q 296 171 326 174 q 261 156 261 168 q 283 142 261 146 q 307 122 306 129 q 293 49 307 106 q 276 -32 276 -18 q 278 -33 276 -33 q 313 -6 282 -33 q 369 29 347 29 q 394 17 383 29 q 419 4 406 4 q 436 21 436 4 q 429 34 436 31 q 400 38 422 38 l 364 39 q 456 124 425 94 l 506 118 q 538 117 519 117 q 553 124 553 117 q 525 147 553 143 q 508 153 515 149 q 503 160 501 157 q 574 230 504 163 q 644 299 644 297 q 544 310 644 304 m 1276 1018 q 1339 1097 1331 1097 q 1343 1089 1343 1097 q 1288 964 1343 1063 l 1229 858 l 1250 824 q 1265 781 1265 797 l 1264 779 q 1264 776 1264 778 l 1161 656 q 1058 531 1058 533 q 897 338 1058 525 q 713 129 736 151 q 689 101 689 108 q 615 11 689 94 q 438 -144 539 -76 l 332 -215 l 210 -168 q 81 -114 86 -119 q 79 -107 79 -111 q 97 39 79 -78 q 122 167 115 156 q 128 210 128 178 q 132 237 129 231 q 144 243 135 243 l 149 243 q 167 249 167 240 q 138 257 167 263 q 136 290 131 254 q 207 401 142 325 l 272 478 q 544 474 363 476 q 815 469 725 471 l 885 554 q 968 661 954 639 q 1065 782 993 700 q 1167 889 1136 864 q 1276 1018 1213 925 z "},"E":{"ha":1631,"x_min":81,"x_max":1551,"o":"m 196 7 q 208 6 203 4 q 210 11 215 8 q 200 11 207 13 q 196 7 186 11 m 529 26 q 530 28 529 28 q 531 29 531 28 q 492 36 531 36 l 460 36 q 325 29 353 33 q 285 11 297 25 l 269 -7 l 378 -1 q 497 9 471 4 q 529 26 524 14 m 919 29 q 938 42 938 29 q 935 54 938 54 q 917 42 932 54 q 919 29 900 31 m 811 42 q 778 53 811 54 q 743 49 758 51 q 711 46 728 47 q 657 44 694 44 q 567 33 576 43 q 571 17 558 22 q 601 14 579 14 q 703 19 644 14 q 765 29 763 24 q 790 31 768 36 q 811 42 811 26 m 421 364 q 412 356 414 358 q 411 352 410 354 q 419 347 413 350 q 433 344 428 344 q 456 357 456 344 q 444 371 456 369 q 421 364 432 372 m 764 349 q 758 368 769 354 q 747 376 751 378 q 729 360 743 375 q 719 332 711 339 q 729 329 725 329 q 764 349 751 329 m 736 394 l 756 408 l 729 408 q 703 400 703 408 q 686 397 703 392 l 678 397 q 600 389 653 397 q 535 375 547 381 q 543 364 521 368 q 561 363 547 363 q 660 374 599 363 q 736 394 722 385 m 508 533 l 629 706 l 811 700 q 1267 689 1100 692 q 1550 682 1543 683 q 1551 678 1551 682 q 1521 614 1551 664 l 1482 551 l 1082 551 q 1047 501 1069 535 l 769 501 q 726 415 742 443 l 1013 422 q 1215 425 1171 425 q 1300 422 1300 425 q 1260 350 1300 415 q 1223 295 1235 308 q 1196 279 1211 282 q 885 239 1174 275 l 600 203 l 561 128 q 543 90 551 108 q 531 61 535 72 q 528 50 526 50 q 1113 142 546 50 q 1221 156 1196 156 q 1242 150 1236 156 q 1244 143 1244 147 q 1206 54 1244 128 l 1161 -33 l 724 -128 q 260 -228 356 -208 l 251 -228 q 181 -187 229 -228 q 100 -117 119 -136 q 81 -86 81 -99 q 193 87 81 -74 q 315 253 306 247 l 344 257 q 401 267 374 261 q 428 275 428 272 q 428 278 428 276 q 427 281 426 281 q 432 282 428 282 q 446 274 442 282 q 567 265 453 265 q 651 272 651 265 q 623 292 651 286 q 511 303 594 299 q 442 304 482 304 q 389 297 392 304 q 371 301 385 288 q 361 317 361 311 q 372 339 361 324 q 508 533 379 350 z "},"F":{"ha":1524,"x_min":75,"x_max":1443,"o":"m 485 425 q 526 432 515 432 q 532 426 532 432 q 444 239 532 417 l 357 58 l 303 22 q 135 -178 208 -40 q 92 -232 107 -232 q 83 -217 75 -232 q 233 103 93 -201 l 376 407 l 414 413 q 485 425 453 418 m 1336 915 q 1392 931 1342 931 l 1443 931 l 1436 899 q 1424 828 1431 863 l 1415 790 l 1122 776 q 775 757 813 760 l 718 751 l 683 676 q 651 597 651 613 l 660 597 q 841 606 685 597 q 1019 614 997 614 l 1026 614 q 994 565 1029 611 q 965 515 965 526 q 971 504 965 513 q 964 475 983 490 q 909 463 951 465 q 703 456 867 460 q 428 444 468 450 q 397 451 397 440 q 374 486 397 463 l 351 510 l 385 511 q 451 509 397 511 q 531 507 506 507 q 583 514 583 507 q 460 525 583 521 q 336 533 336 529 q 342 541 336 536 q 358 552 347 546 q 382 563 369 558 q 464 582 431 582 q 475 581 467 582 q 489 581 483 581 l 544 578 l 504 586 q 484 591 493 588 q 470 597 475 594 q 467 601 465 600 q 543 742 489 647 l 615 878 l 808 883 q 1265 899 1199 894 q 1336 915 1332 903 z "},"G":{"ha":1342,"x_min":79,"x_max":1261,"o":"m 782 139 q 784 139 782 139 q 786 143 786 139 q 782 147 786 147 q 778 143 778 147 q 782 139 778 139 m 683 167 q 699 168 693 161 q 696 172 703 172 q 689 172 693 172 q 680 171 682 172 q 683 167 678 169 m 229 579 q 214 583 235 583 q 196 582 196 583 q 200 579 196 581 q 229 579 214 576 m 785 772 q 794 790 789 783 q 804 794 800 796 l 863 775 q 976 735 921 756 q 1031 710 1031 715 q 1004 658 1031 701 q 968 608 978 614 q 669 601 954 601 l 381 601 l 364 583 q 349 558 356 572 q 314 497 349 551 l 279 443 l 400 243 q 529 28 525 33 q 539 21 533 21 q 613 69 551 21 q 679 129 679 124 q 622 138 679 132 l 572 143 l 572 244 l 650 251 q 706 254 697 254 q 789 239 742 254 q 989 215 851 221 q 1122 205 1057 213 q 1224 188 1186 197 q 1261 172 1261 179 q 1196 164 1261 164 l 1124 164 q 1085 104 1104 131 l 1001 108 q 888 118 914 114 q 882 119 886 118 q 875 119 878 119 q 845 104 861 119 q 778 29 829 89 q 683 -67 696 -62 l 676 -67 q 654 -66 671 -67 q 629 -65 638 -65 q 606 -71 610 -65 q 613 -79 601 -76 q 633 -81 621 -81 q 668 -86 668 -81 q 607 -162 668 -97 q 536 -228 546 -228 q 301 114 522 -228 q 79 465 79 454 q 110 526 79 475 q 147 576 140 576 q 156 589 156 576 q 186 658 156 603 q 229 719 217 714 q 458 732 242 726 q 725 742 676 738 q 771 750 763 746 q 785 772 779 754 z "},"H":{"ha":983,"x_min":79,"x_max":901,"o":"m 368 411 q 385 411 378 406 q 381 415 388 415 q 374 415 378 415 q 365 413 363 415 q 368 411 365 413 m 343 465 q 336 473 344 471 q 308 475 328 475 q 278 473 285 475 q 275 463 272 471 q 306 451 279 451 q 343 465 339 451 m 383 568 q 356 575 369 575 q 340 568 344 575 q 349 561 338 563 q 368 561 357 560 q 392 564 392 561 q 383 568 392 565 m 863 1063 q 889 1103 882 1103 q 897 1097 892 1103 q 901 1081 901 1093 q 839 778 901 1042 l 765 472 l 792 446 q 817 413 817 421 q 801 365 817 399 q 779 332 786 332 q 746 291 761 331 q 690 93 731 251 q 628 -137 633 -125 l 626 -137 q 582 -114 617 -137 q 531 -57 539 -87 q 522 -11 522 -28 q 531 22 522 6 q 571 189 536 33 q 606 360 606 344 q 486 367 606 367 l 364 367 l 313 179 q 256 -11 260 -8 q 206 -36 249 -14 q 167 -64 176 -51 q 143 -118 158 -76 q 110 -190 129 -156 q 82 -224 90 -224 l 81 -222 q 143 92 79 -221 q 210 404 207 404 q 214 421 211 404 q 232 503 222 490 q 290 521 242 515 q 299 523 300 522 q 281 525 299 524 l 279 525 l 278 525 l 276 525 l 275 525 q 238 538 238 526 q 247 553 238 550 q 285 558 256 557 q 328 568 328 560 q 286 576 328 576 q 247 586 247 576 q 249 596 247 592 q 290 842 286 729 q 303 946 293 889 q 321 1010 313 1003 q 392 1026 324 1013 q 472 1039 460 1039 q 488 1003 488 1039 q 439 711 488 944 l 389 471 q 526 475 417 471 l 661 479 l 721 715 q 777 924 765 888 q 811 978 789 960 q 842 1008 842 1003 q 863 1063 842 1013 z "},"I":{"ha":1221,"x_min":79,"x_max":1140,"o":"m 569 -190 q 553 -194 567 -192 q 528 -199 539 -196 q 517 -208 517 -203 q 525 -212 517 -212 q 551 -209 533 -212 q 569 -206 568 -206 q 580 -201 578 -206 q 578 -194 582 -197 q 569 -190 575 -190 m 293 -81 q 251 -68 279 -68 q 228 -76 232 -68 q 232 -86 225 -83 q 261 -89 239 -89 q 293 -81 294 -87 m 660 725 q 690 735 669 735 q 719 732 694 735 q 812 719 792 725 q 843 697 832 713 q 867 681 851 683 q 953 678 882 678 l 997 678 l 1140 678 q 1018 499 1099 618 l 933 506 q 891 508 914 507 q 856 511 868 510 q 840 513 843 513 q 789 294 835 513 q 724 -37 743 76 l 719 -65 q 818 -60 753 -64 q 915 -54 883 -56 l 910 -96 q 907 -122 907 -118 q 916 -140 907 -136 q 961 -151 925 -144 q 988 -165 988 -156 q 979 -200 988 -175 l 971 -232 l 689 -232 q 413 -221 413 -232 q 413 -215 413 -215 q 399 -219 411 -215 q 296 -229 369 -226 q 242 -232 246 -232 q 226 -231 232 -232 q 217 -227 221 -231 q 213 -222 214 -224 q 210 -212 211 -219 q 204 -185 204 -187 q 225 -165 204 -169 q 319 -160 246 -161 q 439 -153 425 -160 q 450 -154 450 -147 q 463 -167 450 -161 q 483 -168 476 -172 q 486 -150 492 -162 q 453 -140 483 -140 l 433 -140 l 397 -140 l 296 -140 l 206 -139 l 208 -89 l 208 -39 l 239 -35 q 301 -29 281 -29 q 388 -42 350 -29 q 501 -54 428 -54 q 564 -51 553 -54 q 578 -35 575 -49 q 627 254 589 10 q 665 521 665 499 q 494 556 665 535 q 436 610 468 558 l 403 660 l 264 663 q 101 676 128 665 q 90 682 94 679 q 82 688 85 685 q 81 692 79 690 q 365 703 83 694 q 660 725 646 711 z "},"J":{"ha":1228,"x_min":79,"x_max":1147,"o":"m 617 -119 q 632 -118 626 -125 q 628 -114 635 -114 q 621 -114 625 -114 q 613 -115 614 -114 l 617 -119 m 774 299 q 776 299 774 299 q 778 303 778 299 q 774 307 778 307 q 769 303 769 307 q 774 299 769 299 m 263 674 q 311 694 276 693 q 753 681 361 694 q 1146 665 1144 667 q 1147 652 1147 665 q 1144 624 1146 639 q 1135 591 1140 597 q 1114 585 1131 585 q 1081 567 1089 585 q 1042 551 1072 551 q 996 553 1015 551 q 954 554 978 554 q 917 539 918 554 q 911 514 915 535 q 904 482 907 493 q 875 410 893 436 q 842 294 853 374 q 784 74 833 243 q 721 -118 735 -94 q 715 -135 715 -126 q 700 -199 707 -192 q 515 -211 696 -200 q 308 -222 335 -222 l 267 -224 l 218 -81 q 174 44 183 22 q 149 68 164 65 q 106 92 133 72 q 79 121 79 113 q 161 128 79 128 q 232 124 217 128 q 285 35 253 115 l 318 -46 l 394 -47 q 499 -55 476 -49 q 529 -86 522 -61 q 557 -114 536 -114 l 576 -114 l 560 -92 q 543 -60 543 -71 q 574 -44 543 -46 l 606 -42 q 672 299 635 121 l 696 299 q 718 307 718 299 q 700 328 718 315 l 682 340 q 703 453 689 378 q 724 568 717 529 l 588 568 q 432 578 475 568 q 358 621 389 588 q 293 649 340 643 l 249 654 l 263 674 z "},"K":{"ha":1604,"x_min":79,"x_max":1525,"o":"m 126 243 q 143 243 136 238 q 139 247 146 247 q 132 247 136 247 q 124 244 121 247 q 126 243 124 244 m 493 318 q 478 322 486 321 q 464 319 463 322 q 468 318 464 319 q 493 318 482 315 m 431 324 q 425 318 419 324 q 436 318 431 313 q 431 324 436 322 m 372 315 q 403 321 403 319 q 346 324 403 322 q 271 315 271 324 q 297 308 271 308 q 372 315 331 308 m 836 651 q 1261 863 1256 863 q 1264 850 1264 863 q 1225 808 1264 838 q 1163 740 1186 779 q 1125 701 1147 717 q 1036 651 1103 686 q 907 578 933 601 q 711 464 889 560 q 540 371 540 374 q 642 307 540 368 q 743 236 743 246 q 724 221 743 226 q 712 215 713 218 q 717 204 711 211 q 751 181 728 190 q 785 113 785 165 q 784 102 785 110 q 783 90 783 94 q 784 67 782 72 q 794 61 786 61 q 1092 -91 806 61 q 1400 -243 1378 -243 l 1401 -243 l 1403 -242 q 1407 -242 1406 -242 q 1461 -257 1428 -242 q 1501 -278 1490 -269 q 1517 -307 1511 -287 q 1525 -351 1525 -336 q 1519 -364 1525 -364 l 1518 -364 q 1181 -183 1485 -347 q 599 132 878 -18 q 318 281 321 282 q 235 142 315 278 q 147 4 154 4 q 112 26 144 4 q 79 51 79 49 q 82 60 79 53 q 90 81 85 67 q 99 106 94 94 q 117 160 117 147 q 107 193 117 167 l 93 229 l 204 438 q 335 644 317 644 q 339 635 339 644 q 371 628 339 628 q 410 629 394 628 q 451 631 428 631 q 485 618 485 631 q 446 528 485 606 q 431 496 436 507 q 419 471 425 485 q 410 451 413 457 q 410 444 408 444 q 836 651 425 444 z "},"L":{"ha":1533,"x_min":78,"x_max":1456,"o":"m 842 -122 q 885 -118 885 -122 q 860 -111 885 -115 q 817 -107 836 -107 q 793 -112 793 -107 q 842 -122 793 -122 m 225 -106 q 196 -106 217 -93 q 207 -114 197 -112 q 222 -112 218 -114 q 225 -106 226 -110 m 374 728 q 361 779 361 771 q 374 788 361 788 q 390 761 390 788 q 394 742 390 744 q 413 740 397 739 q 497 751 442 747 q 543 756 528 756 q 569 746 561 756 q 574 735 574 742 q 347 101 574 707 q 300 -35 297 -32 q 579 -50 303 -37 q 842 -69 790 -61 q 894 -101 894 -78 q 932 -132 894 -114 q 967 -156 967 -147 q 1196 -164 967 -164 q 1401 -166 1367 -164 q 1446 -181 1436 -168 l 1456 -193 q 1428 -199 1456 -197 q 1374 -200 1421 -199 q 1244 -203 1326 -201 q 1089 -206 1163 -204 l 781 -212 l 735 -192 q 649 -171 701 -176 q 385 -154 596 -165 l 81 -136 q 118 -22 78 -133 l 157 89 l 186 83 q 203 81 200 81 q 219 89 213 81 q 240 125 226 97 q 328 421 268 183 l 390 669 l 374 728 z "},"M":{"ha":1492,"x_min":79,"x_max":1413,"o":"m 538 358 q 525 365 533 365 q 509 359 517 365 q 501 344 501 353 q 532 332 501 332 q 563 338 550 332 q 576 353 579 343 q 560 356 574 360 q 538 358 543 350 m 1007 417 q 1004 431 1018 417 q 1001 433 1003 433 q 997 425 997 433 q 1007 417 997 417 m 1014 450 q 1008 444 1003 450 q 1019 444 1014 439 q 1014 450 1019 449 m 571 628 q 710 896 707 896 l 729 888 q 740 876 740 882 q 732 854 740 871 q 726 826 719 829 q 792 817 731 822 l 851 811 l 879 608 q 914 392 906 411 q 935 410 919 379 l 938 418 q 1063 685 988 531 q 1151 856 1139 839 q 1171 874 1167 879 q 1175 864 1172 872 q 1192 846 1181 850 q 1246 835 1204 842 q 1315 819 1304 825 q 1326 794 1326 814 q 1334 769 1326 779 q 1367 744 1342 760 l 1413 715 q 1372 429 1413 664 q 1331 138 1331 174 q 1335 103 1331 117 q 1340 71 1340 78 q 1308 -31 1340 50 l 1272 -122 l 1243 -121 l 1213 -118 l 1193 -17 q 1179 103 1179 53 l 1179 110 q 1211 475 1196 208 q 1221 596 1217 567 q 1218 628 1226 628 q 1174 547 1213 628 q 1103 390 1135 465 q 1083 358 1090 358 q 1076 342 1079 358 q 1006 175 1075 325 q 931 22 938 25 l 929 22 q 856 70 915 22 q 792 133 796 118 q 786 171 786 151 q 797 197 786 197 q 811 183 803 197 q 822 175 815 175 q 839 200 833 175 q 854 206 840 214 q 856 186 865 199 q 849 178 850 181 q 853 174 849 175 q 867 172 857 172 q 884 177 881 172 q 888 199 888 182 q 875 224 888 224 q 856 221 872 224 l 842 221 q 810 225 818 221 q 794 217 796 232 q 793 211 794 211 q 781 247 789 211 q 771 304 772 282 l 771 339 l 914 335 q 1007 333 956 333 q 1054 340 1054 333 q 1025 353 1054 350 q 911 358 996 356 q 767 367 769 364 q 746 488 761 372 q 728 606 729 606 q 604 368 722 606 q 413 -17 433 26 l 354 -33 q 285 -57 297 -50 q 215 -225 276 -61 q 149 -393 154 -387 q 140 -397 144 -397 q 115 -374 129 -397 q 93 -317 101 -351 l 79 -260 l 100 -224 q 124 -190 114 -199 q 151 -181 133 -182 l 182 -176 l 251 -17 q 360 214 303 101 q 426 331 417 326 q 433 347 433 333 q 571 628 433 360 z "},"N":{"ha":1326,"x_min":79,"x_max":1246,"o":"m 319 49 q 355 49 333 49 q 385 50 376 50 q 401 50 393 50 q 413 49 408 50 q 418 49 417 49 q 467 46 432 46 l 503 46 q 332 -228 422 -79 l 240 -246 q 97 -271 111 -271 q 79 -250 79 -271 q 122 -149 79 -225 q 168 -74 158 -85 q 201 -62 178 -62 q 285 -46 285 -62 q 233 -37 285 -37 l 183 -37 q 208 4 192 -24 q 231 46 224 32 l 319 49 m 924 142 q 908 153 921 150 q 889 150 896 156 q 885 140 885 144 q 893 133 886 136 q 908 131 900 131 q 920 133 915 131 q 924 142 925 136 m 901 324 l 1031 551 l 1135 546 q 1246 535 1246 540 q 1031 135 1246 522 q 979 42 1013 101 q 813 -239 844 -201 q 740 -272 779 -271 l 708 -272 l 701 -272 l 640 -274 l 613 -231 q 588 -175 596 -203 q 567 -72 579 -147 q 559 -20 564 -50 q 552 24 554 10 q 550 43 550 39 q 674 51 550 46 q 782 59 763 56 q 818 78 801 63 q 840 117 840 97 q 838 126 840 126 q 813 107 835 128 q 778 81 786 81 q 774 89 774 81 q 901 324 774 93 m 522 575 q 557 618 549 618 q 561 610 561 618 q 558 592 561 608 q 553 554 553 568 q 559 540 553 543 q 588 535 565 538 l 624 531 l 688 308 q 746 85 746 107 q 550 79 746 79 q 347 71 358 79 q 332 72 339 63 q 289 81 326 81 q 256 86 256 81 q 258 94 256 89 q 522 575 278 140 z "},"O":{"ha":1110,"x_min":79,"x_max":1031,"o":"m 807 -21 q 809 -21 807 -21 q 811 -17 811 -21 q 807 -12 811 -12 q 803 -17 803 -12 q 807 -21 803 -21 m 196 90 q 211 92 206 85 q 207 96 214 96 q 200 96 204 96 q 192 94 193 96 l 196 90 m 181 156 q 153 164 168 164 q 138 156 138 164 q 165 147 138 147 q 186 150 185 147 q 181 156 186 153 m 285 197 q 292 214 300 197 q 281 224 288 224 q 272 211 272 224 q 285 197 272 197 m 811 233 q 683 403 768 369 l 681 403 q 547 347 658 403 q 390 257 436 292 q 333 224 344 224 q 328 215 322 224 q 328 214 328 214 l 329 211 q 301 150 329 194 q 260 104 272 106 l 258 104 l 250 101 q 258 100 251 101 q 268 78 274 96 q 260 55 267 74 q 251 25 254 36 l 240 -10 q 375 -117 286 -44 l 424 -111 q 671 -53 560 -94 q 828 138 828 7 q 811 233 828 181 m 753 560 q 979 567 964 567 q 1014 561 1014 567 q 957 531 1014 539 q 904 503 924 526 q 890 481 890 485 q 903 464 890 476 q 1001 217 953 408 q 1031 88 1031 104 q 991 19 1031 74 q 910 -79 951 -35 q 711 -221 817 -178 q 438 -271 606 -264 l 319 -275 l 235 -201 q 99 -77 119 -101 q 79 -18 79 -53 q 138 219 79 99 q 533 531 240 433 q 616 551 579 546 q 753 560 653 556 z "},"P":{"ha":1446,"x_min":81,"x_max":1367,"o":"m 418 324 q 420 324 418 324 q 422 328 422 324 q 418 332 422 332 q 414 328 414 332 q 418 324 414 324 m 511 358 q 513 358 511 358 q 515 363 515 358 q 511 367 515 367 q 507 363 507 367 q 511 358 507 358 m 574 458 q 582 458 574 458 q 590 467 590 458 q 574 475 590 475 q 557 467 557 475 q 574 458 557 458 m 503 467 q 505 467 503 467 q 507 471 507 467 q 503 475 507 475 q 499 471 499 475 q 503 467 499 467 m 1086 650 q 1074 651 1086 651 q 858 636 1040 651 q 681 618 682 621 q 651 557 672 606 q 633 506 631 508 q 864 575 642 506 q 1086 650 1086 644 m 1256 775 q 1311 788 1256 788 l 1367 788 l 1361 760 q 1356 723 1360 754 q 1349 668 1353 692 q 1340 636 1344 644 q 938 497 1338 629 q 528 356 538 365 q 515 328 515 343 q 503 311 515 317 q 490 288 490 306 q 421 119 490 271 l 351 -29 q 265 -81 322 -46 q 179 -132 207 -115 l 151 -201 q 103 -282 122 -272 q 93 -287 99 -285 q 83 -289 88 -289 l 81 -289 q 225 24 81 -283 l 372 333 l 335 368 q 301 408 301 397 q 326 414 301 413 q 375 416 350 415 q 403 419 400 417 q 428 425 408 425 q 451 433 451 425 q 429 443 451 442 l 401 447 l 425 458 q 447 482 447 471 q 504 601 447 489 q 571 726 561 714 q 851 742 572 728 q 1250 761 1131 757 q 1256 775 1256 761 z "},"Q":{"ha":1082,"x_min":78,"x_max":1000,"o":"m 501 661 q 325 669 381 669 q 290 667 290 669 q 441 607 290 663 q 599 551 592 551 q 619 599 604 551 q 631 650 635 646 q 501 661 629 651 m 82 724 l 88 788 l 150 788 q 204 785 196 788 q 213 767 213 782 l 213 744 l 532 744 q 851 739 851 744 q 808 600 854 732 l 764 468 q 804 427 778 454 q 843 386 831 400 l 796 353 q 736 285 747 321 q 699 238 725 250 q 679 226 681 229 q 690 224 683 224 q 708 211 708 221 q 673 95 708 204 q 628 -37 638 -14 l 624 -53 q 615 -85 619 -68 q 610 -110 610 -103 q 611 -114 610 -114 q 750 -25 615 -114 q 893 89 885 64 q 935 117 901 110 q 982 128 967 122 q 1000 114 1000 133 q 961 58 1000 94 q 894 14 922 21 q 818 -22 861 6 q 775 -58 789 -42 q 744 -108 761 -75 l 717 -164 l 601 -201 q 474 -240 485 -240 q 451 -221 451 -240 q 532 47 451 -190 q 610 276 594 235 q 638 317 626 317 l 640 317 q 676 328 658 314 q 688 336 686 333 q 688 342 690 339 q 672 350 685 344 q 647 358 647 358 q 578 394 644 358 q 432 470 564 403 q 189 597 300 538 q 78 661 78 656 q 82 724 78 682 z "},"R":{"ha":1435,"x_min":81,"x_max":1356,"o":"m 910 68 q 915 76 915 72 q 894 88 915 88 q 881 81 883 88 q 883 72 878 76 q 897 66 889 67 q 910 68 904 65 m 838 106 q 854 115 851 106 q 851 121 856 119 q 843 122 849 122 q 825 114 825 122 q 838 106 825 106 m 778 106 q 796 115 793 106 q 792 121 797 119 q 783 122 789 122 q 767 114 767 122 q 778 106 767 106 m 1022 121 l 1074 128 l 1014 128 q 910 122 960 128 l 863 117 l 894 110 q 921 107 908 107 q 950 110 936 107 q 1022 121 982 117 m 240 172 q 242 172 240 172 q 244 176 244 172 q 240 181 244 181 q 236 176 236 181 q 240 172 236 172 m 786 293 q 797 293 792 288 q 792 299 803 299 q 786 293 781 299 m 676 293 q 687 293 682 288 q 682 299 692 299 q 676 293 671 299 m 775 294 q 762 302 775 300 q 740 299 749 304 q 751 290 735 292 q 775 294 775 290 m 640 304 q 626 307 640 307 q 619 299 614 307 q 632 295 624 293 q 640 304 640 297 m 943 465 l 997 481 l 751 482 l 504 482 l 483 439 q 464 382 464 396 q 493 353 464 365 q 522 346 510 346 q 681 383 547 346 q 863 438 843 428 q 943 465 875 443 m 379 567 q 402 608 393 597 q 422 618 411 618 q 564 610 431 618 q 775 601 664 601 q 1074 588 858 600 q 1294 572 1290 576 q 1331 517 1297 571 q 1356 463 1356 476 q 1353 454 1356 457 q 1132 375 1340 442 q 906 294 933 311 q 842 269 890 286 q 789 249 789 254 q 852 215 789 242 q 931 189 915 189 q 1095 129 936 189 q 1254 64 1254 69 q 1180 -16 1254 54 q 1094 -86 1106 -86 q 1083 -84 1092 -86 q 1062 -78 1075 -82 q 1040 -72 1049 -74 q 886 -25 886 -33 q 957 -12 886 -21 q 1048 1 1026 -4 q 1069 18 1069 7 q 1050 26 1069 26 q 1017 25 1031 26 q 965 21 1001 24 q 914 18 928 18 q 853 11 853 15 q 854 6 853 8 q 849 -8 860 -7 q 835 -1 840 -7 q 808 7 825 11 l 806 7 q 665 53 782 7 q 475 139 549 100 l 399 179 l 296 -26 q 183 -231 192 -231 q 140 -190 175 -231 q 88 -121 104 -149 q 81 -103 81 -110 q 136 36 81 -86 q 213 172 199 172 q 225 175 222 172 q 226 181 228 178 q 221 188 224 183 q 218 193 218 192 q 283 354 218 214 q 379 567 344 493 z "},"S":{"ha":999,"x_min":79,"x_max":918,"o":"m 661 653 q 750 686 746 686 q 772 643 757 686 q 788 578 788 600 l 788 567 q 826 430 788 532 q 881 325 865 328 q 908 314 897 322 q 918 282 918 304 q 910 249 918 261 q 899 243 906 243 q 872 258 886 243 q 854 289 858 272 q 819 347 847 317 q 764 388 792 376 q 738 404 736 397 q 742 408 739 406 q 739 422 753 415 q 702 472 726 428 q 678 532 678 517 q 679 536 678 533 l 681 540 q 676 543 681 543 q 581 501 661 543 q 489 458 494 458 q 464 442 481 458 q 413 425 447 425 q 379 410 379 425 q 332 371 379 397 q 292 342 292 351 q 501 253 292 340 l 703 172 l 782 176 q 831 179 824 179 q 858 174 858 179 q 868 61 858 161 q 874 -22 874 -17 q 865 -72 874 -51 l 854 -101 q 552 -140 754 -114 q 250 -179 350 -167 l 211 -157 q 176 -128 188 -143 q 151 -81 165 -114 q 103 -1 132 -31 q 79 38 79 22 q 81 50 79 46 q 88 67 83 63 q 110 71 92 71 q 208 63 132 71 q 300 42 300 54 q 275 22 300 36 q 258 -3 253 11 q 268 -39 264 -18 q 251 -71 272 -64 l 232 -78 l 258 -94 q 296 -107 278 -107 q 397 -94 314 -107 q 522 -72 511 -79 q 588 -58 538 -62 q 636 -48 625 -54 q 665 -14 647 -42 q 689 38 689 25 q 665 75 689 51 q 608 99 640 99 l 601 99 q 214 200 453 99 q 158 231 161 222 q 157 236 157 233 q 158 249 157 243 q 153 274 163 274 q 144 289 138 274 q 160 303 150 299 q 175 315 175 307 q 148 347 175 325 q 121 372 121 368 q 194 430 121 383 q 350 518 267 476 q 661 653 468 578 z "},"T":{"ha":1442,"x_min":79,"x_max":1365,"o":"m 532 408 q 547 417 547 408 q 526 425 547 425 q 510 419 510 425 q 532 408 510 408 m 556 585 q 550 579 544 585 q 561 579 556 574 q 556 585 561 583 m 453 579 q 468 581 463 574 q 465 585 472 585 q 458 585 463 585 q 449 583 451 585 q 453 579 447 581 m 433 576 q 439 581 439 576 q 433 585 439 585 q 429 581 429 585 q 433 576 429 576 m 340 579 q 329 583 339 582 q 318 579 318 582 q 340 579 329 576 m 707 589 q 703 600 707 599 q 685 596 699 601 q 674 583 672 590 q 690 576 676 576 q 707 589 707 576 m 274 644 q 280 644 274 644 q 286 653 286 644 q 274 661 286 661 q 261 653 261 661 q 274 644 261 644 m 81 711 q 115 729 88 729 q 135 717 135 729 q 171 701 135 707 q 390 681 207 696 l 558 667 l 590 685 q 639 701 619 701 q 665 699 643 701 q 704 682 704 693 q 703 672 704 676 q 703 656 700 658 q 721 653 706 653 q 932 636 756 653 q 1153 601 1114 621 q 1272 572 1186 585 q 1361 557 1356 563 q 1353 539 1365 553 q 1325 529 1347 529 q 1146 550 1292 529 l 950 578 l 892 551 q 807 528 839 528 q 747 531 800 528 q 705 533 729 532 q 668 535 681 535 q 654 536 656 536 q 554 331 646 536 q 481 167 508 226 q 425 43 454 108 q 363 -94 396 -22 q 317 -188 329 -167 q 294 -210 304 -210 l 290 -210 q 269 -197 275 -206 q 263 -165 263 -187 q 269 -81 263 -147 q 283 16 278 0 q 304 35 288 32 q 331 65 318 38 q 392 217 344 93 q 471 406 458 390 q 476 425 476 411 q 494 487 476 433 q 513 547 513 540 q 421 560 513 551 q 224 583 275 574 q 143 615 174 593 q 79 703 79 661 q 81 711 79 708 z "},"U":{"ha":1140,"x_min":81,"x_max":1064,"o":"m 221 51 q 206 56 214 54 q 192 53 190 56 q 196 51 192 53 q 221 51 210 49 m 535 60 q 524 64 533 63 q 514 60 510 63 q 535 60 525 57 m 735 142 q 747 142 735 142 q 760 150 760 142 q 735 158 760 158 q 710 150 710 158 q 735 142 710 142 m 654 142 q 689 151 689 142 q 660 158 689 158 q 625 150 625 158 q 654 142 625 142 m 299 150 q 301 150 299 150 q 303 154 303 150 q 299 158 303 158 q 294 154 294 158 q 299 150 294 150 m 253 151 q 229 158 253 158 q 214 156 214 158 q 242 146 214 146 q 253 151 253 146 m 907 610 q 1038 810 1031 810 q 1054 803 1040 810 q 1049 775 1064 796 q 1007 663 1007 721 l 1007 651 q 1001 613 1007 629 q 1000 603 1000 610 q 1013 547 1000 581 l 1029 499 l 921 304 q 811 100 811 108 q 638 -221 658 -221 q 570 -191 632 -221 q 492 -151 508 -161 q 488 -142 488 -150 q 504 -86 488 -131 q 515 -56 510 -71 q 521 -32 519 -40 q 521 -22 522 -24 q 381 -113 514 -22 q 243 -208 247 -204 q 224 -217 231 -217 q 154 -179 211 -217 q 81 -129 81 -132 q 126 -6 81 -107 q 219 208 172 99 q 240 237 226 226 q 293 265 254 247 q 381 294 354 294 q 402 288 399 294 q 406 251 406 282 q 390 182 406 210 q 369 133 379 158 q 343 69 360 107 q 329 37 336 54 q 319 10 322 19 q 317 0 315 0 l 564 143 q 621 179 572 143 q 694 261 669 214 q 751 357 726 318 q 907 610 764 376 z "},"V":{"ha":1313,"x_min":79,"x_max":1232,"o":"m 315 47 q 308 60 321 54 q 294 53 294 67 q 302 40 294 42 q 315 47 310 38 m 283 74 q 290 79 290 74 q 286 91 290 83 q 278 103 282 99 l 274 108 q 271 99 271 107 q 274 83 271 92 q 283 74 278 74 m 450 136 q 410 136 422 149 q 404 126 404 131 q 433 117 404 117 q 463 125 463 117 q 450 136 463 131 m 243 210 q 258 214 251 210 q 265 221 265 218 q 249 226 265 226 q 226 218 226 226 q 243 210 226 210 m 1107 1140 q 1148 1187 1107 1157 q 1208 1217 1189 1217 l 1232 1217 l 1201 1154 q 1147 1085 1169 1092 q 988 915 1125 1076 q 819 706 851 756 q 772 588 786 657 q 746 502 763 536 q 664 364 729 468 q 613 282 642 328 q 558 191 585 236 q 524 135 531 146 q 464 42 478 56 q 444 11 450 28 q 378 -102 439 -3 q 307 -212 318 -201 q 276 -214 297 -222 q 253 -187 261 -208 q 228 -76 246 -165 q 190 114 207 21 q 142 351 174 207 q 115 462 122 443 q 92 481 107 481 q 79 485 79 481 q 114 525 79 490 q 171 597 158 569 q 196 621 183 621 q 208 619 203 621 q 238 607 229 615 q 276 429 242 603 q 311 238 311 256 q 293 225 311 228 l 292 225 l 279 222 q 294 218 282 221 q 324 175 315 213 l 333 139 l 354 167 q 393 204 379 204 q 403 203 399 204 l 411 201 q 403 210 411 204 q 400 218 400 211 q 560 471 400 239 q 713 687 681 646 q 781 750 746 728 q 847 807 811 768 q 968 953 882 846 q 1107 1140 1107 1125 z "},"W":{"ha":1415,"x_min":79,"x_max":1336,"o":"m 454 101 q 464 100 458 97 q 460 108 468 106 q 453 106 456 108 q 454 101 451 103 m 463 119 q 473 119 468 114 q 468 125 478 125 q 463 119 457 125 m 942 193 q 908 201 942 201 q 875 192 875 201 q 883 188 875 188 q 899 188 890 188 q 910 183 907 188 q 928 178 915 174 q 942 193 942 182 m 606 340 q 611 357 622 353 q 593 356 606 358 q 578 336 578 351 q 600 310 578 314 q 617 308 611 307 q 619 315 622 310 q 606 324 617 319 q 596 328 597 326 q 596 332 594 329 q 606 340 597 335 m 1229 775 q 1281 894 1274 894 q 1326 819 1307 894 q 1336 771 1336 786 q 1321 729 1336 756 q 1299 699 1308 706 q 1272 690 1290 692 q 1241 673 1251 689 q 1188 557 1231 657 q 1011 193 1078 306 q 913 -3 1007 186 q 781 -260 813 -203 q 736 -317 749 -317 q 731 -315 732 -317 q 724 -286 714 -307 q 729 -260 733 -264 q 672 -251 728 -257 q 613 -228 619 -244 q 553 158 556 158 q 497 49 550 158 q 390 -173 444 -60 q 325 -294 335 -286 q 315 -303 318 -301 q 309 -301 311 -304 q 306 -292 307 -299 q 236 -264 301 -275 q 181 -252 190 -257 q 167 -228 171 -247 q 119 -178 163 -204 q 79 -147 79 -153 q 125 129 79 -143 q 164 397 164 358 q 158 426 164 410 q 151 450 151 443 q 181 542 151 465 q 214 617 203 600 q 242 633 225 633 q 257 632 251 633 q 274 620 271 629 q 292 531 278 611 q 303 424 303 471 q 296 337 303 393 q 286 243 289 281 q 278 158 281 165 q 269 -33 269 144 q 271 -69 269 -69 q 307 0 275 -69 q 396 197 389 176 q 465 351 399 208 q 535 499 531 494 l 536 499 q 604 457 551 499 q 658 410 647 424 q 672 372 669 397 q 674 354 674 365 q 667 329 674 329 q 658 340 663 329 q 638 353 653 356 q 629 344 631 350 q 640 317 629 331 q 663 303 651 303 q 681 290 675 303 q 692 232 686 278 l 696 201 l 561 207 q 467 210 472 210 q 426 199 426 210 q 441 187 426 189 q 513 183 456 185 q 693 174 685 182 q 713 64 700 167 q 735 -37 725 -37 q 944 371 750 -37 l 1024 536 q 1085 551 1044 540 q 1147 567 1126 561 l 1167 610 q 1229 775 1172 624 z "},"X":{"ha":1057,"x_min":81,"x_max":976,"o":"m 517 193 q 523 193 517 193 q 529 201 529 193 q 517 210 529 210 q 504 201 504 210 q 517 193 504 193 m 553 206 q 556 203 553 206 q 567 201 558 201 q 581 206 575 201 q 583 214 586 210 q 567 218 579 218 q 551 214 554 218 q 553 206 547 210 m 274 671 q 335 689 321 689 q 401 668 351 689 l 456 644 l 469 594 q 549 461 483 542 q 622 381 614 381 q 715 492 628 381 q 808 635 803 600 q 838 679 814 679 q 908 654 856 679 l 976 621 l 915 554 q 779 379 858 492 l 704 271 l 756 207 q 849 114 808 144 l 892 85 l 901 0 q 908 -87 908 -65 q 903 -94 908 -94 q 846 -76 886 -94 q 785 -41 804 -58 q 710 43 765 -24 q 622 138 635 138 q 565 26 611 138 l 519 -85 l 463 -100 q 194 -236 296 -146 q 121 -308 132 -292 q 89 -324 110 -324 q 81 -318 81 -324 q 220 -129 81 -307 q 369 49 360 49 q 376 58 376 49 q 422 122 376 64 q 496 213 467 179 q 521 247 511 228 q 526 265 526 257 q 506 297 526 276 q 475 339 481 322 q 464 353 469 353 q 341 494 457 353 q 225 644 225 636 q 274 671 225 651 z "},"Y":{"ha":1204,"x_min":81,"x_max":1124,"o":"m 796 506 q 798 506 796 506 q 800 510 800 506 q 796 514 800 514 q 792 510 792 514 q 796 506 792 506 m 639 660 q 701 689 690 689 l 703 689 q 714 635 714 685 q 707 546 714 601 q 703 496 703 514 q 719 439 703 460 q 749 449 721 438 q 769 460 768 457 q 761 474 771 464 q 738 489 749 489 q 735 490 735 489 q 844 585 735 499 l 928 650 l 1124 650 l 1107 631 q 771 229 1082 601 q 438 -154 453 -154 q 346 -194 421 -154 q 268 -243 292 -222 q 190 -326 244 -264 q 97 -417 114 -417 q 81 -410 81 -417 q 244 -207 81 -407 q 572 196 407 -7 l 739 399 q 738 401 740 401 q 713 388 732 401 q 681 375 692 375 q 615 424 660 375 q 574 514 574 469 q 578 567 574 533 l 583 628 l 639 660 z "},"Z":{"ha":1333,"x_min":78,"x_max":1254,"o":"m 468 -124 q 485 -119 479 -128 q 474 -112 485 -114 q 456 -117 458 -112 q 461 -121 456 -118 l 468 -124 m 560 -58 q 549 -54 558 -56 q 538 -58 533 -56 q 560 -58 549 -61 m 657 263 q 653 267 665 265 q 638 267 647 268 l 617 264 q 622 263 618 263 q 657 263 640 260 m 106 726 q 78 750 78 742 q 99 757 78 757 q 201 743 125 757 q 753 735 254 735 q 1167 731 1081 733 q 1254 722 1254 729 q 1185 708 1254 708 q 1060 690 1118 708 l 996 672 l 847 469 q 685 268 696 268 q 678 257 678 268 q 599 135 678 242 q 558 78 578 106 q 527 33 538 50 q 518 17 517 17 q 800 74 535 17 l 1079 136 l 1107 114 q 1168 82 1143 89 q 1190 72 1181 78 q 1197 61 1199 65 q 1150 44 1194 51 q 1111 32 1122 39 q 1089 6 1100 25 l 1072 -24 l 642 -124 q 211 -214 250 -214 q 189 -208 196 -214 q 168 -185 168 -197 q 204 -135 168 -174 l 239 -94 l 335 -86 q 461 -65 461 -75 q 439 -62 461 -62 l 429 -62 q 383 -68 406 -62 q 342 -71 367 -71 q 308 -69 319 -71 l 258 -65 l 354 53 q 503 233 478 206 q 551 261 529 260 l 571 264 q 554 268 569 264 q 543 276 543 271 q 650 421 543 289 q 776 589 768 567 q 825 608 785 607 l 826 608 l 828 608 l 829 608 l 850 611 l 840 613 q 833 613 839 613 q 824 614 828 614 q 683 604 783 614 q 478 589 549 592 l 401 586 q 375 696 386 653 l 256 701 q 106 726 138 708 z "},"a":{"ha":990,"x_min":81,"x_max":911,"o":"m 513 158 q 502 169 513 165 q 481 169 492 172 q 474 154 461 163 q 490 150 479 150 q 513 158 513 150 m 376 172 q 368 175 376 175 q 360 167 360 175 q 372 167 360 156 q 376 172 376 169 m 764 251 l 772 296 q 763 299 772 299 q 722 292 746 299 q 696 281 699 286 q 601 268 689 268 l 513 268 l 500 243 l 486 218 l 532 218 q 665 213 568 218 l 754 207 l 764 251 m 374 325 l 424 396 l 597 392 q 842 382 779 386 l 911 376 l 907 353 q 896 285 900 321 q 872 222 890 238 q 808 72 853 207 l 765 -61 l 726 -67 q 686 -67 686 -72 q 703 22 686 -60 q 721 113 721 103 q 710 115 721 115 q 624 108 683 115 q 447 93 531 97 q 372 87 388 90 q 350 69 357 83 q 333 52 343 56 q 289 49 322 49 q 226 42 236 49 q 221 35 221 38 q 263 26 221 26 q 301 28 286 26 q 364 50 361 35 q 385 67 369 65 q 393 60 392 64 q 338 -49 393 56 l 282 -151 l 235 -169 q 189 -182 200 -182 q 175 -178 181 -182 q 164 -169 174 -176 q 142 -152 154 -161 q 121 -135 131 -143 l 81 -101 l 124 -39 q 179 24 167 24 q 186 35 186 24 q 243 135 186 50 l 304 222 l 346 226 q 392 242 386 232 q 381 249 394 249 l 361 247 q 326 247 326 242 q 374 325 326 256 z "},"b":{"ha":863,"x_min":81,"x_max":783,"o":"m 529 144 q 481 150 529 150 q 436 145 447 150 q 407 119 425 140 q 379 94 390 99 q 328 89 368 90 q 279 83 279 89 q 308 74 279 74 q 347 69 336 74 q 354 61 354 67 q 338 42 354 51 q 301 31 322 32 l 299 31 l 282 28 q 294 26 283 28 q 318 18 318 24 q 294 -17 318 15 l 271 -49 l 314 -18 q 379 18 358 14 q 401 35 401 24 q 424 60 401 47 q 469 74 447 74 q 496 86 496 74 q 485 90 496 90 q 501 115 476 93 q 529 144 529 140 m 371 144 q 360 149 369 147 q 350 144 346 147 q 371 144 361 142 m 735 664 q 779 700 768 700 q 783 694 783 700 q 749 640 783 692 q 715 546 715 593 q 702 491 715 513 q 614 372 689 469 q 513 240 513 243 q 606 235 513 235 l 699 235 l 715 199 l 735 164 l 714 150 q 689 132 710 147 q 631 89 668 117 q 564 40 593 61 q 221 -210 225 -210 q 145 -169 210 -210 q 81 -121 81 -128 q 331 197 81 -108 q 540 450 489 392 q 613 517 592 508 q 674 579 646 531 q 735 664 699 622 z "},"c":{"ha":1097,"x_min":81,"x_max":1015,"o":"m 883 178 q 936 193 925 190 q 982 169 949 193 q 1015 136 1015 144 q 963 110 1015 126 q 897 93 911 93 l 893 93 l 892 93 q 681 -7 867 93 q 478 -119 478 -115 q 558 -125 478 -125 q 750 -120 647 -125 q 863 -110 853 -115 q 874 -107 871 -107 q 910 -124 885 -107 q 951 -146 939 -146 q 961 -157 961 -146 q 940 -196 961 -175 q 896 -214 925 -210 q 529 -231 851 -219 q 244 -247 260 -240 q 211 -250 224 -256 q 92 -199 161 -233 q 81 -187 81 -192 q 114 -175 81 -175 q 189 -158 149 -175 q 232 -147 217 -147 q 265 -157 244 -147 q 288 -165 289 -168 q 281 -158 288 -164 q 257 -146 263 -146 q 250 -135 250 -146 q 537 14 250 -128 q 883 178 824 156 z "},"d":{"ha":972,"x_min":81,"x_max":892,"o":"m 399 117 q 306 124 363 121 l 285 124 q 262 116 267 124 q 247 72 257 108 q 243 49 246 68 q 221 32 242 32 q 200 24 200 32 q 217 15 200 15 q 233 13 233 15 q 221 -36 233 8 q 210 -89 210 -78 q 214 -96 210 -96 q 256 -61 221 -96 q 356 0 315 0 l 360 0 q 386 7 386 -3 q 369 15 386 15 q 354 21 354 15 q 400 71 354 31 l 449 113 l 399 117 m 853 581 q 890 622 881 622 q 892 618 892 622 q 860 542 892 600 q 829 475 829 489 q 838 453 829 467 l 851 429 l 693 243 q 458 -35 599 133 q 313 -174 382 -126 l 243 -221 l 164 -190 q 138 -181 154 -186 q 115 -172 122 -175 q 97 -164 107 -168 q 84 -156 88 -160 q 81 -150 81 -153 q 97 -10 81 -108 l 119 131 q 201 226 154 175 l 551 226 l 644 342 q 776 492 731 450 q 853 581 810 521 z "},"e":{"ha":1125,"x_min":81,"x_max":1044,"o":"m 501 -33 q 517 -32 511 -39 q 514 -28 521 -28 q 507 -28 511 -28 q 498 -29 500 -28 q 501 -33 496 -31 m 440 -44 q 478 -36 478 -44 q 440 -28 478 -28 q 401 -36 401 -28 q 440 -44 401 -44 m 364 -35 q 336 -29 358 -26 q 221 -46 231 -36 q 218 -50 218 -49 q 256 -54 218 -54 l 292 -54 q 365 -37 365 -50 q 365 -36 365 -36 q 364 -35 364 -36 m 511 167 q 521 175 521 167 q 517 183 521 183 q 508 174 513 183 q 511 167 506 167 m 308 167 q 318 175 318 167 q 308 183 318 183 q 300 175 300 183 q 308 167 300 167 m 490 193 q 492 193 490 193 q 494 197 494 193 q 490 201 494 201 q 486 197 486 201 q 490 193 486 193 m 465 193 q 465 199 481 199 q 453 199 461 199 q 401 193 426 199 q 396 186 383 188 l 415 186 q 465 193 449 186 m 779 -78 q 481 -142 775 -78 q 186 -206 188 -206 q 131 -161 181 -206 q 81 -111 81 -117 q 157 7 81 -103 l 235 117 l 269 117 q 290 117 274 117 q 317 118 306 118 q 348 117 326 118 q 381 117 369 117 l 414 117 q 449 122 449 117 q 444 129 449 125 q 385 140 433 140 l 350 140 l 325 140 q 261 144 261 140 q 347 276 261 156 l 439 406 l 613 400 q 915 390 822 394 l 1044 385 q 990 303 1018 349 l 863 303 q 752 300 775 303 q 719 286 729 297 q 691 272 708 275 q 617 268 674 268 l 529 268 l 517 243 l 503 218 l 686 218 l 750 218 q 839 215 817 218 q 861 203 861 213 q 839 161 861 199 q 794 127 822 133 q 567 96 765 121 q 424 69 442 81 q 397 32 414 64 q 376 -15 376 -6 q 383 -18 376 -18 q 633 19 401 -18 q 819 47 804 47 q 831 44 829 47 q 833 36 833 42 q 809 -26 833 25 q 779 -78 785 -78 z "},"f":{"ha":1038,"x_min":81,"x_max":958,"o":"m 267 217 q 311 226 269 219 q 361 233 353 233 q 363 231 363 233 q 335 157 363 217 q 267 19 285 49 q 217 -35 249 -11 q 97 -185 167 -74 q 81 -193 88 -197 q 129 -72 81 -176 q 225 129 196 67 q 267 217 261 211 m 367 288 q 364 290 378 289 l 347 292 q 324 289 325 292 q 329 288 324 288 q 367 288 347 285 m 888 547 q 924 557 890 557 l 958 557 l 953 517 q 942 469 947 475 q 832 461 940 468 q 615 448 724 454 q 503 442 506 442 q 467 392 485 438 q 450 342 447 344 l 451 342 q 551 346 454 342 q 674 350 649 350 l 683 350 q 668 319 688 347 q 654 282 651 296 q 649 263 660 271 q 463 247 635 253 l 288 242 l 272 263 l 256 282 l 282 286 q 291 288 286 288 q 297 289 296 289 l 300 290 q 274 293 300 292 q 238 301 238 293 q 272 320 238 310 q 331 331 306 331 q 350 332 351 329 q 342 336 350 333 q 331 346 331 340 q 369 425 331 353 q 422 515 411 504 q 656 531 431 524 q 888 547 886 539 z "},"g":{"ha":922,"x_min":79,"x_max":843,"o":"m 538 428 q 553 439 546 439 q 621 419 564 439 q 697 392 694 394 q 682 354 700 390 l 665 319 l 278 319 l 247 269 q 217 214 217 221 q 299 74 217 210 l 379 -61 l 417 -35 q 465 8 465 0 q 444 15 465 15 q 396 43 396 15 q 399 61 396 47 l 404 92 l 469 89 q 729 64 615 79 q 843 39 843 49 q 803 32 843 32 q 744 14 761 32 q 703 -1 731 -1 q 660 0 678 -1 l 590 4 l 524 -69 q 419 -182 428 -172 q 378 -222 385 -222 q 267 -61 371 -222 q 181 72 233 -10 q 121 164 128 153 l 79 228 l 100 265 q 124 303 119 303 q 139 331 129 303 q 165 378 149 357 q 201 397 176 393 q 353 404 225 400 q 501 413 471 408 q 538 428 531 417 z "},"h":{"ha":696,"x_min":79,"x_max":615,"o":"m 249 206 q 226 210 249 210 q 210 201 210 208 q 231 198 214 196 q 249 206 249 200 m 582 585 q 608 613 593 613 q 615 601 615 613 q 569 397 615 585 l 525 208 l 542 190 q 554 161 554 178 q 528 117 554 138 q 476 -32 511 103 q 465 -75 471 -53 q 456 -115 460 -97 q 448 -146 451 -132 q 442 -168 444 -160 q 439 -178 439 -176 q 431 -182 436 -182 q 399 -169 418 -182 q 374 -143 381 -157 q 368 -124 368 -132 q 396 22 368 -106 q 418 135 418 124 q 342 142 418 142 l 267 142 l 251 93 q 201 -89 207 -69 q 165 -121 194 -104 q 121 -175 131 -137 q 102 -217 115 -196 q 82 -239 89 -239 q 79 -233 79 -239 q 127 6 79 -219 q 179 235 175 232 q 185 251 185 240 q 214 269 185 265 l 244 275 l 217 276 q 201 278 206 278 q 194 283 197 279 q 190 296 190 288 q 201 357 190 308 q 214 450 214 407 q 225 526 217 500 q 240 556 232 549 q 269 567 247 563 q 322 578 292 569 q 331 579 326 579 q 342 540 342 579 q 313 361 342 494 q 282 215 282 221 q 343 211 282 211 l 368 211 l 454 214 l 493 364 q 550 532 531 510 q 582 585 571 556 z "},"i":{"ha":847,"x_min":79,"x_max":768,"o":"m 338 -189 q 338 -175 350 -189 q 332 -171 335 -171 q 329 -179 329 -171 q 338 -189 329 -189 m 451 397 q 485 403 457 403 q 572 385 551 403 q 678 368 592 369 l 768 365 q 689 250 729 314 q 630 256 669 251 q 569 261 590 260 l 538 93 q 500 -94 513 -44 l 496 -115 q 560 -110 517 -112 q 626 -104 604 -107 l 621 -133 q 618 -150 618 -147 q 642 -167 618 -161 q 667 -193 667 -172 q 661 -217 667 -214 q 411 -226 654 -221 l 168 -232 l 168 -181 q 226 -178 188 -181 q 282 -175 264 -175 l 221 -174 l 160 -171 l 163 -139 q 169 -109 164 -114 q 204 -100 174 -104 q 229 -99 213 -99 q 275 -104 258 -99 q 340 -110 292 -110 q 400 -103 393 -110 q 432 74 404 -99 q 460 265 460 246 q 396 279 460 268 q 340 292 353 286 q 314 321 328 299 l 293 353 l 214 347 q 168 346 196 346 q 107 354 128 346 l 79 365 l 135 372 q 317 383 210 379 q 451 397 444 389 z "},"j":{"ha":853,"x_min":81,"x_max":774,"o":"m 197 365 q 292 369 200 369 q 591 364 418 369 q 769 353 764 358 q 774 339 774 349 q 766 315 774 326 q 750 303 758 303 q 729 289 735 303 q 701 278 725 278 q 675 279 686 278 l 626 282 l 618 247 q 597 192 614 228 q 576 125 581 157 q 540 -19 572 94 q 497 -150 507 -133 q 489 -175 492 -160 q 474 -201 486 -192 q 385 -214 465 -208 q 243 -219 306 -219 q 199 -217 201 -219 q 165 -125 192 -206 q 113 -24 139 -40 q 81 11 81 -3 q 86 14 81 14 q 93 13 90 14 q 147 7 110 7 l 188 7 l 210 -46 q 243 -101 232 -99 q 280 -105 244 -101 q 342 -113 315 -108 q 368 -125 368 -118 q 378 -143 368 -139 q 383 -142 383 -146 q 381 -131 383 -139 q 393 -112 375 -112 q 415 -104 410 -112 q 440 8 419 -97 q 476 124 461 113 q 479 133 490 133 q 471 143 471 133 q 482 210 471 150 q 489 260 486 229 l 492 290 l 393 294 q 305 301 325 297 q 263 322 285 306 q 210 344 231 344 q 192 350 196 344 q 197 365 189 356 z "},"k":{"ha":1092,"x_min":79,"x_max":1011,"o":"m 260 139 q 262 139 260 139 q 264 143 264 139 q 260 147 264 147 q 256 143 256 147 q 260 139 256 139 m 572 360 q 847 492 842 492 l 849 492 q 851 490 851 492 q 804 435 851 482 q 688 350 753 383 q 613 308 618 317 q 494 240 608 301 q 382 176 382 181 q 440 139 382 175 q 508 88 508 99 q 501 82 508 85 q 513 57 475 74 q 530 42 526 51 q 533 13 533 33 q 542 -21 533 -21 q 732 -118 547 -21 q 926 -215 914 -215 q 974 -228 943 -215 q 1008 -265 1003 -240 q 1010 -279 1010 -272 q 1011 -290 1011 -286 l 1011 -294 q 625 -90 1003 -294 q 242 114 247 114 q 179 25 232 114 l 128 -62 q 79 -29 94 -40 l 93 6 q 101 42 101 28 q 97 63 101 53 q 94 76 94 71 q 158 215 94 100 l 228 343 l 281 344 l 296 344 q 340 333 340 344 q 322 283 340 314 q 313 266 317 272 q 305 250 310 260 q 300 238 300 240 q 300 233 300 236 q 572 360 317 233 z "},"l":{"ha":1040,"x_min":82,"x_max":961,"o":"m 564 -196 q 553 -192 563 -193 q 543 -196 539 -193 q 564 -196 553 -199 m 258 378 q 267 383 258 383 q 275 369 275 383 q 293 360 275 360 q 333 363 297 360 q 367 364 347 364 q 399 350 399 364 q 393 331 399 347 q 298 74 368 271 q 228 -135 228 -124 q 353 -150 228 -143 q 548 -163 501 -157 q 599 -181 594 -169 q 636 -212 603 -192 q 688 -228 660 -225 q 813 -232 715 -232 q 961 -239 961 -232 q 852 -251 961 -246 q 628 -257 743 -257 q 494 -244 518 -257 q 282 -222 474 -232 q 85 -211 100 -215 q 82 -204 82 -208 q 92 -158 82 -192 q 113 -95 103 -124 q 124 -65 124 -67 q 126 -64 124 -64 q 134 -65 129 -64 q 143 -67 139 -65 q 151 -68 146 -68 q 181 -31 164 -68 q 238 160 203 19 q 269 318 269 288 q 267 340 269 326 q 258 378 258 374 z "},"m":{"ha":1011,"x_min":79,"x_max":932,"o":"m 553 -29 q 556 -21 556 -29 q 546 -12 556 -12 q 547 -25 535 -12 q 553 -29 550 -29 m 589 -18 q 581 -4 589 -4 q 572 -11 572 -4 q 582 -25 572 -21 q 589 -18 588 -24 m 428 343 q 481 428 467 428 l 482 428 q 490 403 494 422 q 490 399 490 401 q 489 394 489 396 q 521 383 489 383 q 563 368 554 383 q 574 303 564 367 q 594 178 583 240 q 606 115 604 115 q 676 246 615 115 q 772 417 757 417 q 775 411 775 417 q 807 396 775 401 q 857 384 847 389 q 874 363 867 379 q 910 328 885 340 q 932 306 932 317 q 929 288 932 301 q 896 97 913 197 q 875 -68 875 -22 q 876 -83 875 -81 q 879 -96 879 -89 q 863 -161 879 -114 q 839 -212 847 -201 q 817 -224 831 -224 q 797 -213 801 -224 q 785 -153 792 -203 q 779 -78 779 -115 q 783 -14 779 -50 q 797 208 797 114 q 794 244 797 244 l 793 244 q 710 69 782 233 q 638 -108 638 -94 q 625 -128 638 -128 q 579 -104 610 -128 q 538 -65 543 -76 q 526 -3 532 -53 q 523 28 525 11 q 519 55 521 44 q 517 68 517 65 q 567 74 517 74 l 604 74 l 632 74 q 679 78 679 74 q 678 79 679 79 q 663 83 671 82 q 654 82 656 83 q 644 81 653 81 q 614 83 638 81 q 578 85 590 85 l 507 90 l 494 168 l 483 244 l 464 201 q 342 -48 401 68 q 276 -164 282 -164 q 235 -172 268 -164 q 203 -194 213 -178 q 164 -290 193 -210 q 107 -397 124 -397 q 86 -358 97 -397 q 79 -322 79 -331 q 88 -292 79 -311 q 117 -265 100 -265 q 142 -250 132 -265 q 181 -168 153 -235 q 428 343 236 -42 z "},"n":{"ha":911,"x_min":81,"x_max":831,"o":"m 613 38 q 615 38 613 38 q 617 42 617 38 q 613 46 617 46 q 608 42 608 46 q 613 38 608 38 m 606 150 l 689 299 l 758 299 q 831 293 831 299 q 697 40 831 283 q 550 -221 564 -204 q 490 -232 539 -232 q 446 -227 454 -232 q 421 -196 438 -222 q 394 -118 399 -156 q 383 -49 392 -94 l 379 -21 l 433 -21 q 558 7 542 -21 q 565 22 567 21 q 550 10 564 22 q 528 -1 531 -8 q 606 150 528 14 m 338 268 q 386 350 383 350 q 388 322 390 350 q 387 315 388 319 q 386 310 386 311 q 390 297 386 300 q 408 292 394 294 q 435 275 429 289 q 508 10 508 21 q 504 3 508 6 q 488 -1 500 0 q 453 -3 475 -3 q 394 -4 432 -4 q 276 -12 281 -4 q 285 -19 274 -17 q 310 -21 294 -21 q 347 -26 347 -21 q 294 -117 347 -33 l 242 -201 l 196 -211 q 103 -226 129 -226 q 81 -214 81 -226 q 104 -150 81 -190 q 133 -106 122 -117 q 163 -89 143 -94 l 164 -89 l 167 -87 l 183 -82 q 169 -81 182 -82 l 146 -81 l 160 -50 q 178 -25 169 -29 q 219 -21 186 -21 q 264 -11 264 -21 q 258 -7 264 -4 q 219 -6 253 -11 l 189 0 l 240 93 q 291 185 256 121 q 338 268 326 249 z "},"o":{"ha":771,"x_min":79,"x_max":693,"o":"m 511 172 q 468 206 481 206 q 378 165 454 204 q 275 106 301 126 q 228 42 256 90 q 194 -39 201 -6 q 193 -47 193 -42 q 232 -93 193 -64 q 293 -122 271 -122 q 326 -119 299 -122 q 490 -74 425 -110 q 564 13 556 -37 q 565 33 565 19 q 550 107 565 68 q 511 172 535 146 m 501 307 q 653 314 636 314 q 685 307 685 314 q 656 289 685 296 q 618 261 618 278 q 636 211 618 250 q 675 102 657 169 q 693 4 693 35 q 692 -1 693 1 q 692 -6 692 -4 q 643 -78 686 -28 q 563 -156 600 -128 q 328 -229 475 -219 l 242 -233 l 161 -164 q 95 -101 111 -121 q 79 -57 79 -82 q 92 8 79 -33 q 244 226 129 151 q 361 283 304 265 q 501 307 418 301 z "},"p":{"ha":990,"x_min":81,"x_max":911,"o":"m 306 108 q 315 107 310 104 q 313 114 319 111 q 306 108 306 113 m 715 246 q 710 247 715 247 q 690 246 704 247 q 642 242 676 244 q 574 236 608 239 l 471 228 l 453 196 q 440 158 436 165 q 582 199 449 158 q 715 246 715 240 m 825 325 q 875 332 836 332 l 911 332 l 906 297 q 896 247 906 293 q 831 217 894 242 q 652 154 768 193 q 397 72 536 115 q 380 62 388 69 q 365 44 372 54 q 353 29 357 33 q 343 3 349 25 q 296 -106 340 -8 q 251 -187 264 -171 q 200 -225 239 -203 q 152 -258 164 -246 q 128 -303 140 -271 q 105 -342 118 -326 q 85 -358 92 -358 q 81 -356 81 -358 q 174 -156 81 -349 l 268 42 l 243 65 q 221 93 218 90 q 240 97 222 94 q 273 102 257 99 q 289 111 289 106 q 294 122 289 122 q 350 210 303 122 l 396 297 l 449 303 q 657 313 496 307 q 825 325 813 318 z "},"q":{"ha":751,"x_min":78,"x_max":676,"o":"m 389 260 q 285 264 351 264 q 236 261 236 263 q 251 253 236 260 q 344 218 282 239 q 417 197 406 197 l 418 197 q 428 228 422 201 l 433 254 l 389 260 m 83 256 q 81 298 83 269 q 78 340 78 326 l 121 340 q 168 328 164 340 q 208 317 171 319 q 374 315 244 315 q 575 310 575 315 q 549 221 575 297 l 521 140 l 544 115 q 567 86 567 93 q 539 63 567 79 q 504 22 508 44 q 481 -8 500 -4 q 472 -17 464 -14 q 476 -18 474 -18 q 483 -28 483 -21 q 457 -121 483 -42 q 424 -225 424 -221 q 426 -226 424 -226 q 520 -173 442 -226 q 603 -106 599 -119 q 624 -89 604 -97 q 661 -81 644 -81 q 675 -85 671 -81 q 676 -86 676 -85 q 642 -126 676 -97 q 592 -158 608 -156 q 542 -190 572 -162 q 499 -244 513 -217 q 474 -271 490 -261 q 418 -294 458 -281 q 329 -315 356 -315 q 314 -308 314 -315 q 321 -285 314 -307 q 343 -214 328 -262 q 371 -128 358 -165 q 442 46 428 46 q 457 54 457 46 q 210 190 457 64 l 83 256 z "},"r":{"ha":989,"x_min":81,"x_max":910,"o":"m 607 81 q 615 89 615 81 q 613 97 615 97 q 603 88 607 97 q 607 81 603 82 m 628 342 q 485 349 607 349 l 443 349 q 353 340 369 349 q 335 297 336 332 l 335 289 q 339 273 335 276 q 357 267 343 269 l 360 267 q 510 299 392 267 q 629 340 629 332 q 628 342 629 342 m 271 407 l 288 444 l 349 439 q 836 408 731 408 q 885 369 858 408 q 910 328 910 332 l 725 264 q 540 197 540 203 q 688 136 540 193 l 836 78 l 736 -22 l 674 -4 q 600 26 600 18 q 615 29 600 29 q 707 43 707 35 q 649 46 707 46 q 576 38 585 46 q 561 38 565 26 q 540 46 557 46 q 462 71 526 46 q 343 122 397 96 q 286 147 296 147 q 249 83 283 147 q 181 -47 215 18 l 147 -112 l 146 -112 q 110 -77 139 -112 q 81 -29 81 -42 q 117 72 81 -7 q 271 407 217 282 z "},"s":{"ha":697,"x_min":81,"x_max":619,"o":"m 400 300 q 507 340 496 340 q 528 316 515 340 q 540 275 540 292 q 540 269 540 272 q 539 263 539 265 q 564 175 539 236 q 603 110 589 114 q 619 74 619 106 q 608 54 619 54 q 588 65 597 54 q 578 89 578 76 q 556 122 578 100 q 518 150 535 144 q 481 201 501 157 q 469 225 475 214 q 458 242 463 236 q 453 247 454 249 q 299 172 303 172 q 258 149 292 172 q 224 121 225 126 q 351 64 224 118 q 465 22 432 31 q 531 13 497 13 l 583 13 l 589 -54 q 592 -107 592 -96 q 565 -168 592 -162 q 369 -194 468 -182 q 204 -212 231 -212 q 164 -201 183 -212 q 122 -149 138 -186 q 94 -101 111 -114 q 81 -72 81 -92 q 83 -59 81 -62 q 97 -56 86 -56 q 132 -58 99 -56 q 203 -62 176 -62 q 224 -74 224 -62 q 207 -86 224 -82 q 200 -112 181 -93 q 201 -137 211 -124 q 194 -154 194 -149 q 225 -168 194 -168 q 292 -160 247 -168 q 335 -153 308 -157 q 378 -145 361 -149 q 403 -142 396 -142 q 451 -117 426 -139 q 476 -76 476 -94 q 453 -51 476 -64 q 406 -37 429 -37 q 210 10 333 -37 q 144 38 157 29 q 128 65 132 46 q 133 97 124 92 q 122 121 144 104 l 101 139 l 126 160 q 400 300 188 211 z "},"t":{"ha":990,"x_min":79,"x_max":910,"o":"m 369 181 q 372 181 369 181 q 374 185 374 181 q 369 189 374 189 q 365 185 365 189 q 369 181 365 181 m 471 290 q 473 290 471 290 q 475 294 475 290 q 471 299 475 299 q 467 294 467 299 q 471 290 467 290 m 79 368 q 99 383 79 383 q 118 375 110 383 q 258 358 125 368 q 368 351 351 351 q 410 360 397 351 q 446 368 425 368 q 483 353 483 368 q 489 345 483 349 q 513 339 494 342 q 564 333 531 336 q 653 325 597 329 q 775 304 757 314 q 856 286 810 290 q 910 272 910 279 q 874 258 910 258 q 753 272 850 258 l 640 289 l 607 272 q 532 257 579 257 l 513 257 l 488 257 q 443 253 447 257 q 332 11 435 242 q 217 -224 226 -224 q 197 -185 197 -224 q 200 -132 197 -154 q 219 -62 208 -62 q 239 -49 232 -62 q 301 114 246 -35 q 357 268 357 263 q 322 274 357 274 q 201 288 269 275 q 118 313 132 300 q 79 368 81 346 z "},"u":{"ha":799,"x_min":81,"x_max":719,"o":"m 578 240 q 708 433 697 433 q 719 429 719 433 q 700 390 719 426 q 682 315 682 358 q 690 256 682 286 q 691 252 690 254 q 692 249 692 250 q 586 36 692 225 q 458 -196 458 -194 q 435 -229 442 -232 q 340 -178 340 -185 l 347 -158 q 359 -119 353 -137 q 364 -100 365 -100 q 267 -165 360 -100 l 172 -232 l 128 -200 q 106 -185 118 -193 q 86 -172 93 -176 l 81 -168 q 126 -50 81 -162 q 174 50 163 32 q 217 85 186 68 q 274 106 258 106 q 290 79 290 106 q 265 -10 290 44 q 242 -72 242 -65 q 351 -17 242 -82 l 458 49 l 578 240 z "},"v":{"ha":889,"x_min":71,"x_max":808,"o":"m 313 -62 q 294 -54 308 -54 q 292 -67 278 -54 l 304 -72 q 313 -69 310 -72 q 313 -62 315 -65 m 729 583 q 757 615 729 594 q 797 636 785 636 q 808 631 808 636 q 792 593 808 625 q 760 551 771 551 q 663 451 751 551 q 550 311 575 350 q 518 232 528 275 q 418 39 508 186 q 221 -286 224 -278 q 217 -290 219 -290 q 182 -229 203 -290 q 131 -10 169 -193 q 82 164 94 164 q 99 196 71 164 q 136 244 128 226 q 163 253 146 258 q 180 229 174 249 q 199 144 186 210 q 228 -3 210 75 l 236 -50 l 256 -25 q 383 160 267 -11 q 526 340 490 317 q 640 463 550 356 q 729 583 729 569 z "},"w":{"ha":967,"x_min":79,"x_max":888,"o":"m 454 172 q 456 172 454 172 q 458 176 458 172 q 454 181 458 181 q 450 176 450 181 q 454 172 450 172 m 415 176 q 407 189 415 189 q 399 182 399 189 q 408 168 399 171 q 415 176 414 169 m 768 335 q 790 388 769 336 q 833 492 811 440 q 856 543 854 543 q 875 513 863 543 q 888 468 888 483 q 876 426 888 444 q 850 408 864 408 q 828 394 838 408 q 799 335 818 381 q 635 -1 758 238 q 501 -240 511 -240 q 494 -219 490 -240 q 497 -207 497 -208 q 471 -197 497 -197 q 431 -186 442 -197 q 413 -115 422 -178 q 395 5 403 -53 q 385 63 388 63 q 311 -86 382 63 q 255 -199 269 -174 q 232 -225 240 -225 q 224 -221 228 -225 q 192 -206 208 -206 q 138 -181 138 -206 q 132 -164 138 -164 q 103 -144 125 -164 l 79 -126 l 108 49 q 132 221 132 178 q 129 239 132 233 q 126 250 126 244 q 149 324 126 278 q 188 372 171 371 q 192 372 189 372 l 194 374 q 207 360 203 374 q 221 289 211 347 q 225 236 225 265 q 222 189 225 219 q 206 -50 206 63 l 208 -72 l 371 285 q 374 286 371 286 q 419 260 385 286 q 458 219 453 233 q 471 146 467 190 l 476 92 l 389 94 q 361 95 378 94 q 338 96 344 96 q 308 93 308 96 q 349 87 308 90 q 431 81 389 83 q 474 76 472 78 q 488 13 483 71 q 501 -50 493 -50 q 600 129 513 -50 l 693 314 l 726 319 q 768 335 761 325 z "},"x":{"ha":736,"x_min":81,"x_max":656,"o":"m 194 276 q 238 289 224 289 q 283 276 253 289 q 313 260 306 268 q 324 233 321 253 q 372 152 328 211 q 428 93 417 93 l 429 94 q 538 251 538 222 q 560 285 538 285 q 608 268 575 285 l 656 244 l 611 197 q 522 86 564 150 l 478 21 l 508 -18 q 568 -76 540 -58 q 580 -87 575 -82 q 588 -98 585 -93 q 594 -110 592 -103 q 599 -123 597 -118 q 603 -137 601 -128 q 605 -152 604 -147 q 607 -169 606 -157 q 610 -187 608 -182 l 615 -224 l 574 -206 q 481 -125 532 -189 q 422 -69 435 -69 l 421 -69 q 386 -140 413 -75 l 360 -206 l 306 -224 q 206 -263 240 -244 q 139 -315 172 -282 q 83 -358 96 -358 q 81 -356 81 -358 q 93 -331 81 -350 q 161 -244 96 -326 q 288 -84 226 -162 q 354 3 349 -6 q 357 11 357 8 q 268 135 357 29 q 169 257 172 249 q 172 262 168 258 q 181 269 175 265 q 194 276 188 274 z "},"y":{"ha":817,"x_min":79,"x_max":739,"o":"m 429 285 q 474 306 463 306 q 485 279 485 306 q 482 232 485 271 q 481 186 481 214 q 490 147 481 147 q 504 156 496 147 q 503 172 514 165 q 500 178 500 174 q 579 251 500 189 q 622 278 607 274 q 679 282 636 282 q 736 275 739 282 q 529 21 733 268 l 324 -225 l 260 -257 q 197 -294 219 -276 q 144 -349 175 -311 q 85 -406 97 -406 q 81 -396 79 -406 q 276 -149 81 -387 q 478 100 475 94 q 469 110 483 111 l 465 108 l 460 108 q 419 135 442 108 q 397 168 401 154 q 392 214 392 182 q 397 259 392 250 q 429 285 401 268 z "},"z":{"ha":922,"x_min":81,"x_max":842,"o":"m 282 -131 q 284 -131 282 -131 q 286 -126 286 -131 q 282 -122 286 -122 q 278 -126 278 -122 q 282 -131 278 -131 m 211 -117 q 375 93 211 -114 q 539 308 539 300 q 508 313 539 318 q 389 301 465 306 q 336 299 344 299 q 294 307 303 299 q 286 342 286 315 q 265 368 286 361 q 178 375 243 375 q 101 392 121 375 l 81 410 l 126 406 q 508 394 182 400 q 842 382 842 389 q 796 375 842 375 q 692 353 722 375 q 574 211 661 331 q 379 -60 379 -51 q 385 -62 379 -62 q 564 -26 467 -49 l 729 10 l 768 -11 q 808 -39 808 -31 q 782 -50 808 -44 q 738 -75 756 -56 q 685 -100 728 -87 q 493 -147 643 -112 q 221 -211 282 -194 q 181 -219 190 -219 q 160 -208 171 -219 q 150 -193 150 -199 q 167 -165 150 -183 q 228 -132 188 -140 q 254 -124 254 -126 q 233 -122 254 -122 q 211 -117 211 -121 z "},"":{"ha":361,"x_min":0,"x_max":0,"o":""}}}
